<svg xmlns="http://www.w3.org/2000/svg" xmlns:xlink="http://www.w3.org/1999/xlink" width="48" height="48" class="lds-spinner" preserveAspectRatio="xMidYMid" viewBox="0 0 100 100" style="background:0 0"><g transform="rotate(0 50 50)"><rect width="5" height="12" x="47.5" y="24" fill="#3cc88f" rx="9.5" ry="4.8"><animate attributeName="opacity" begin="-1.35s" dur="1.5s" keyTimes="0;1" repeatCount="indefinite" values="1;0"/></rect></g><g transform="rotate(36 50 50)"><rect width="5" height="12" x="47.5" y="24" fill="#3cc88f" rx="9.5" ry="4.8"><animate attributeName="opacity" begin="-1.2s" dur="1.5s" keyTimes="0;1" repeatCount="indefinite" values="1;0"/></rect></g><g transform="rotate(72 50 50)"><rect width="5" height="12" x="47.5" y="24" fill="#3cc88f" rx="9.5" ry="4.8"><animate attributeName="opacity" begin="-1.05s" dur="1.5s" keyTimes="0;1" repeatCount="indefinite" values="1;0"/></rect></g><g transform="rotate(108 50 50)"><rect width="5" height="12" x="47.5" y="24" fill="#3cc88f" rx="9.5" ry="4.8"><animate attributeName="opacity" begin="-0.9s" dur="1.5s" keyTimes="0;1" repeatCount="indefinite" values="1;0"/></rect></g><g transform="rotate(144 50 50)"><rect width="5" height="12" x="47.5" y="24" fill="#3cc88f" rx="9.5" ry="4.8"><animate attributeName="opacity" begin="-0.75s" dur="1.5s" keyTimes="0;1" repeatCount="indefinite" values="1;0"/></rect></g><g transform="rotate(180 50 50)"><rect width="5" height="12" x="47.5" y="24" fill="#3cc88f" rx="9.5" ry="4.8"><animate attributeName="opacity" begin="-0.6s" dur="1.5s" keyTimes="0;1" repeatCount="indefinite" values="1;0"/></rect></g><g transform="rotate(216 50 50)"><rect width="5" height="12" x="47.5" y="24" fill="#3cc88f" rx="9.5" ry="4.8"><animate attributeName="opacity" begin="-0.45s" dur="1.5s" keyTimes="0;1" repeatCount="indefinite" values="1;0"/></rect></g><g transform="rotate(252 50 50)"><rect width="5" height="12" x="47.5" y="24" fill="#3cc88f" rx="9.5" ry="4.8"><animate attributeName="opacity" begin="-0.3s" dur="1.5s" keyTimes="0;1" repeatCount="indefinite" values="1;0"/></rect></g><g transform="rotate(288 50 50)"><rect width="5" height="12" x="47.5" y="24" fill="#3cc88f" rx="9.5" ry="4.8"><animate attributeName="opacity" begin="-0.15s" dur="1.5s" keyTimes="0;1" repeatCount="indefinite" values="1;0"/></rect></g><g transform="rotate(324 50 50)"><rect width="5" height="12" x="47.5" y="24" fill="#3cc88f" rx="9.5" ry="4.8"><animate attributeName="opacity" begin="0s" dur="1.5s" keyTimes="0;1" repeatCount="indefinite" values="1;0"/></rect></g></svg>